<svg xmlns="http://www.w3.org/2000/svg" viewBox="0 0 116.81 71.89"><defs><style>.cls-1{fill:#fff;}</style></defs><g id="分離模式-2" data-name="分離模式"><g id="白框去背"><g id="白色去背蘭花"><path class="cls-1" d="M75.27,42.16h0a1.31,1.31,0,0,1-.11.29l-.05.11,0,.1c0,.1-.11.19-.17.29a5.14,5.14,0,0,1-.37.54h0a5.66,5.66,0,0,1-2.66,1.86l-.13,0-.22,0a6,6,0,0,1-2.76-2.09v0c-.06-.09-.13-.19-.18-.28s-.12-.19-.17-.29a.36.36,0,0,1,0-.09,2.73,2.73,0,0,1-.14-.31.22.22,0,0,1,0-.1,2.66,2.66,0,0,1,.15-2.24,1.5,1.5,0,0,1,1-.88,1.06,1.06,0,0,1,.25,0,1.88,1.88,0,0,1,.62.11h0a1,1,0,0,1,.22.09,1.15,1.15,0,0,1,.25.12,1.71,1.71,0,0,1,.23.13,4.36,4.36,0,0,1,.39.26l.06,0,.08.07.25.22.25-.22.08-.07,0,0h0a3.12,3.12,0,0,1,.37-.26l.26-.15h0l.2-.08a1.53,1.53,0,0,1,.27-.11,1.73,1.73,0,0,1,.87-.09,1.5,1.5,0,0,1,1,.88A2.67,2.67,0,0,1,75.27,42.16Z"/><path class="cls-1" d="M70.26,35.51A6.2,6.2,0,0,0,70,38.3v0h0a2.1,2.1,0,0,0-.79,0,2.24,2.24,0,0,0-1.58,1.27A3.55,3.55,0,0,0,67.7,43h0l0,0c-.12.32-.2.61-.23.71a2.28,2.28,0,0,1-1.22,1.61c-1.26.54-3-.37-3.08-.42A12.31,12.31,0,0,1,62,44a7,7,0,0,1-2.32-6.48,6.69,6.69,0,0,1,6.4-5.62h.06a5,5,0,0,1,1.5.34l.28.11C68.8,32.71,70.81,33.76,70.26,35.51Z"/><path class="cls-1" d="M69.55,46.71A7.44,7.44,0,0,1,62.38,48c-.56-.24-.91-.56-.91-.84a6.64,6.64,0,0,1,.4-2.21c.31.26.6.48.82.64l.13.08a6.41,6.41,0,0,0,1.66.58,2.57,2.57,0,0,0,.4.06,3.4,3.4,0,0,0,.45,0,3.07,3.07,0,0,0,1.19-.23A3,3,0,0,0,68.17,44a1,1,0,0,1,0-.14c.17.22.35.42.53.62a.47.47,0,0,0-.31.18c-.27.34,0,.83.54,1.51,0,0,.1.13.26.3l.14.14Z"/><path class="cls-1" d="M71.75,46.16a4.37,4.37,0,0,0,1.8-.79,2.84,2.84,0,0,0,.47,0,3.54,3.54,0,0,1-.25.34,3.43,3.43,0,0,1-.75.67,2.29,2.29,0,0,1-1.28.45h-.13a2.31,2.31,0,0,1-1.26-.42,5.19,5.19,0,0,1-.47-.36,1.14,1.14,0,0,0-.11-.11l-.09-.1a.46.46,0,0,1-.07-.07l0-.07-.24-.33a2.68,2.68,0,0,0,.56.05,4.26,4.26,0,0,0,1.78.78Z"/><path class="cls-1" d="M81.94,47.11c0,.28-.35.61-.91.85a7.45,7.45,0,0,1-7.2-1.29l.22-.2a3.32,3.32,0,0,0,.32-.35c.53-.68.8-1.17.53-1.51a.4.4,0,0,0-.24-.16,8.42,8.42,0,0,0,.55-.64s0,.1,0,.15a3,3,0,0,0,1.64,2.09,4.76,4.76,0,0,0,3.7-.42l.12-.08.34-.25.31-.25.18-.14A6.48,6.48,0,0,1,81.94,47.11Z"/><path class="cls-1" d="M83.84,38.73A6.92,6.92,0,0,1,81.43,44a13.12,13.12,0,0,1-1.18,1,4.2,4.2,0,0,1-3.06.41A2.28,2.28,0,0,1,76,43.76c0-.07,0-.16-.08-.27a.56.56,0,0,0,0-.12,1.43,1.43,0,0,0-.09-.27l0-.08h0a3.55,3.55,0,0,0,0-3.42,2.24,2.24,0,0,0-1.58-1.27,2.1,2.1,0,0,0-.79,0h0l0-.2a6.06,6.06,0,0,0,0-1.58,7.55,7.55,0,0,0-.24-1,1.91,1.91,0,0,1,.46-1.91,1.37,1.37,0,0,1,.17-.17,5.55,5.55,0,0,1,1.64-1l.31-.13a4.55,4.55,0,0,1,1.61-.35,6.7,6.7,0,0,1,6.4,5.62A8.53,8.53,0,0,1,83.84,38.73Z"/><path class="cls-1" d="M75.73,43h0l0,.08Z"/><path class="cls-1" d="M74.83,31.83l-.57.3L74,32.3c-.17.11-.33.23-.47.34l-.21.19-.19.19-.15.17a3,3,0,0,0-.56,1,1,1,0,0,0-.06.23,2.56,2.56,0,0,0,.08,1.28,5.42,5.42,0,0,1,.25,2.11c0,.12,0,.24,0,.35a2,2,0,0,1,0,.24.75.75,0,0,1,0,.16,4.56,4.56,0,0,0-.75.42l-.11.08L71.6,39h0a4.56,4.56,0,0,0-.75-.42s0-.06,0-.09a1.16,1.16,0,0,0,0-.18c0-.11,0-.22,0-.34a2,2,0,0,1,0-.25,5.44,5.44,0,0,1,.26-2,2.57,2.57,0,0,0-.3-2.21,1.43,1.43,0,0,0-.14-.2,1.13,1.13,0,0,0-.1-.13L70.27,33a3.89,3.89,0,0,0-.64-.56l-.25-.17a6.24,6.24,0,0,0-.85-.47c1.06-2.8,2.81-3.3,3.19-3.37A5.25,5.25,0,0,1,74.83,31.83Z"/><path class="cls-1" d="M72.61,38.43l0,.15s0,0,0,0A.75.75,0,0,0,72.61,38.43Z"/><path class="cls-1" d="M73.4,38.32h0a1.5,1.5,0,0,1,0-.2ZM70,38.3v0h0Zm2.56.29s0,0,0,0l0-.15A.75.75,0,0,1,72.57,38.59Zm.59-3.08a7.55,7.55,0,0,1,.24,1A6.08,6.08,0,0,0,73.16,35.51Z"/></g><path class="cls-1" d="M145.12,66.47h0c-1.09-.6-2.7-1.49-4.82-2.45s-4.75-2.05-7.83-3.13-6.63-2.13-10.55-3.07A127.29,127.29,0,0,0,109,55.47c-1.79-.23-3.63-.42-5.5-.59V30.31a1.87,1.87,0,0,0-1.22-1.74l-38.92-15a2,2,0,0,0-1.37,0L41,21.14V1.87A1.9,1.9,0,0,0,39.11,0H14.42A1.9,1.9,0,0,0,12.5,1.87V64c-1.82-.15-3.56-.4-5.24-.65A65.77,65.77,0,0,1-2.83,60.93a58.28,58.28,0,0,1-7.51-3c-1.88-.93-3.38-1.75-4.42-2.38a.34.34,0,0,0-.17,0,.31.31,0,0,0-.23.11.3.3,0,0,0,0,.41,40.36,40.36,0,0,0,3.75,3.48,47.06,47.06,0,0,0,7,4.77c1.44.82,3,1.58,4.74,2.34S4,68,5.92,68.63a70.09,70.09,0,0,0,13,2.73,87.75,87.75,0,0,0,14.86.37c2.57-.14,5.17-.4,7.78-.75l2-.26,2-.31,2-.35,2-.39,2-.41,1.9-.43,2-.45,1.86-.44c1.24-.28,2.48-.61,3.73-.85l3.77-.78c2.51-.48,5-1,7.55-1.35,1.26-.2,2.52-.42,3.77-.58s2.51-.37,3.77-.51l3.74-.42,3.71-.36c2.47-.2,4.91-.38,7.31-.49,4.81-.24,9.47-.3,13.9-.2s8.62.34,12.49.68a167.45,167.45,0,0,1,18.69,2.68c2.25.47,4,.86,5.22,1.18h0A.26.26,0,0,0,145.12,66.47ZM37.19,62.89c-1.4.22-2.78.41-4.15.6-1.59.21-3.16.37-4.71.5V29.71l8.86-3.2Zm0-40.36L25.75,26.66a1.87,1.87,0,0,0-1.26,1.75V64.24c-1.72.08-3.41.12-5.07.11-1,0-2.07,0-3.08-.07V3.74h8.5v.84h.45v.65a.2.2,0,0,0,.19.19h.37a.19.19,0,0,1,.19.19V7.1a.2.2,0,0,1-.19.19h-.37a.19.19,0,0,0-.19.19v.64h-.57V9.17a.2.2,0,0,1-.2.19H22.16a.21.21,0,0,0-.17.08c-3,4.26-1.5,9.68-.89,11.4a.43.43,0,0,0,.63.21c1.6-1.05,5-1.05,5-1.05s3.37,0,5,1.05a.42.42,0,0,0,.62-.21c.61-1.72,2.15-7.14-.89-11.4a.21.21,0,0,0-.17-.08H28.89a.19.19,0,0,1-.19-.19V8.12h-.58V7.48a.19.19,0,0,0-.19-.19h-.36a.2.2,0,0,1-.2-.19V5.61a.19.19,0,0,1,.2-.19h.36a.2.2,0,0,0,.19-.19V4.58h.46V3.74h8.61ZM99.7,54.6c-1.72-.1-3.47-.17-5.24-.2-2.54-.08-5.12,0-7.73.05l-3.94.17c-1.32.09-2.64.21-4,.32s-2.66.27-4,.41l-2,.22-2,.29c-2.67.37-5.33.87-8,1.35s-5.29,1.12-7.9,1.79l-2,.48L51.13,60l-1.89.49-1.82.42-1.79.42-1.82.38L42,62l-1,.18V25.12l21.64-7.8,37,14.26Z"/></g></g></svg>