<svg id="圖層_1" data-name="圖層 1" xmlns="http://www.w3.org/2000/svg" xmlns:xlink="http://www.w3.org/1999/xlink" viewBox="0 0 283.46 283.46"><defs><style>.cls-1{fill:none;}.cls-2{clip-path:url(#clip-path);}.cls-3{fill:#e7b6ac;}.cls-4{fill:#c75ea2;stroke:#c75ea2;stroke-miterlimit:10;stroke-width:0.25px;}.cls-5{fill:#fff;}.cls-6{font-size:85.04px;fill:#af4949;font-family:MStiffHeiHK-UltraBold-B5pc-H, MStiffHeiHK;}</style><clipPath id="clip-path"><circle class="cls-1" cx="141.73" cy="141.73" r="141.73"/></clipPath></defs><g class="cls-2"><circle class="cls-3" cx="141.73" cy="141.73" r="141.73"/><path class="cls-4" d="M212.39,200.74a24.18,24.18,0,0,1,7.23,2.35,11.63,11.63,0,0,1,5,5.31,8.91,8.91,0,0,1,.94,4.08,3.63,3.63,0,0,0,.58,2,2.5,2.5,0,0,1,.43,2.1,3.88,3.88,0,0,1-.65,1.2,8.08,8.08,0,0,1-3.87,2.57,16.83,16.83,0,0,1-5.5.77,24.64,24.64,0,0,1-8.22-1.63,41.06,41.06,0,0,1-9.61-5.33c-3.11-2.2-6.17-4.47-9.28-6.68-1.53-1.08-3.11-2.1-4.68-3.13-.61-.4-1.24-.78-1.87-1.15a3.17,3.17,0,0,1-1.23-1.83.89.89,0,0,1,.3-.89,1.88,1.88,0,0,1,1.23-.6,27.49,27.49,0,0,1,3-.21c1.68,0,3.36.12,5,.17,2.51.06,5,.13,7.54.15,1.56,0,3.13-.07,4.69-.1A34.92,34.92,0,0,1,212.39,200.74Zm7.81,8.77a21.34,21.34,0,0,1,4.84,2,1.07,1.07,0,0,0-.55-1.21c-.74-.39-1.45-.81-2.18-1.22l.05-.1,2.51,1.1-.64-1.46a11.07,11.07,0,0,0-3.86-4.55,16.08,16.08,0,0,0-5.3-2.27,39.42,39.42,0,0,0-11-1.43c-1.6.05-3.2.13-4.81.11-3.36,0-6.72-.12-10.08-.19-1.17,0-2.35-.15-3.53-.13a19.73,19.73,0,0,0-2.53.26,1.16,1.16,0,0,0-1,.81,2.63,2.63,0,0,1,.25.55,1.56,1.56,0,0,0,.76,1,3,3,0,0,0,.76.42c1.32.44,2.63.92,4,1.28,1.72.47,3.46.82,5.2,1.24.9.22,1.81.43,2.69.69a43.31,43.31,0,0,1,6.93,2.8,48.4,48.4,0,0,1,8.31,5.49c1.41,1.11,2.83,2.23,4.27,3.3a8.47,8.47,0,0,0,5.61,1.68,6.18,6.18,0,0,0,4.82-2.18,2.09,2.09,0,0,0,.3-2.47,3.9,3.9,0,0,0-.19-.35,3.68,3.68,0,0,1-.6-2c0-.21,0-.42,0-.65A41.6,41.6,0,0,0,220.2,209.51Zm-34.45-5.19,0,.08.32.24c2.74,1.94,5.5,3.88,8.23,5.84,3,2.1,5.86,4.26,9,6.1a28.4,28.4,0,0,0,11.58,4,19,19,0,0,0,5.77-.3c.14,0,.28-.09.42-.13a.31.31,0,0,0-.23-.09,9.54,9.54,0,0,1-4.23-.85,16.18,16.18,0,0,1-2.59-1.64c-2.08-1.55-4.08-3.21-6.18-4.73a39.83,39.83,0,0,0-14.57-6.66c-2.35-.55-4.72-1.07-7-1.81C186,204.37,185.89,204.35,185.75,204.32Z"/><path class="cls-4" d="M184.65,201.83l3.84.58c1.66.27,3.33.51,5,.84,2.22.44,4.43.94,6.63,1.45,1.26.3,2.5.66,3.74,1s2.28.74,3.41,1.13,2.25.8,3.37,1.22c1.74.64,3.48,1.27,5.21,1.95s3.42,1.4,5.13,2.11a4.4,4.4,0,0,1,1,.55c-.72-.25-1.44-.47-2.15-.74-2.36-.91-4.7-1.85-7.06-2.75q-2.86-1.1-5.76-2.11c-1.17-.42-2.36-.74-3.53-1.14a85,85,0,0,0-11-2.62c-2-.38-3.93-.69-5.89-1-.63-.11-1.25-.26-1.88-.39Z"/><path class="cls-4" d="M211.63,207.7l-9.56-3.17C202.82,204.32,210.44,206.82,211.63,207.7Z"/><path class="cls-4" d="M74.27,211.83c.08-.14.15-.28.24-.41a21.5,21.5,0,0,0,3.3-8.56,57.35,57.35,0,0,0,.63-6.13c.07-1.72.15-3.44.25-5.16a20.63,20.63,0,0,1,3-9.9c.47-.75.91-1.51,1.39-2.25a38.43,38.43,0,0,0,4.48-9.2,6.84,6.84,0,0,1,.32-.78,1.42,1.42,0,0,1,.11,1c0,.46-.08.92-.09,1.38-.09,3.59-.14,7.18-.28,10.77a32.45,32.45,0,0,1-2,9.63,45.28,45.28,0,0,1-2.73,6.22c-1.82,3.41-3.59,6.85-5.65,10.12a33,33,0,0,1-2.31,3,2.94,2.94,0,0,1-.52.39Zm13.18-39.9-.06,0c-.11.24-.23.48-.33.72a38.31,38.31,0,0,1-3.46,6.78c-.65,1-1.27,2-1.86,3.07a18.14,18.14,0,0,0-2.07,5.25,37.07,37.07,0,0,0-.63,5.94c-.06,1.32-.09,2.65-.16,4,0,.65-.12,1.29-.19,1.94-.12,1.1-.25,2.2-.37,3.3,3.16-8.59,5.5-17.42,7.86-26.25a5.29,5.29,0,0,1-.15,1.12c-1.2,5.31-2.57,10.58-4.16,15.79-1.28,4.17-2.68,8.3-4,12.45l-.18.58a1.23,1.23,0,0,0,.43-.49q2.14-3.93,4.28-7.85a42.22,42.22,0,0,0,2.68-6,33,33,0,0,0,2-9.19c.12-2.05.11-4.11.16-6.17,0-.82.07-1.64.1-2.46S87.42,172.75,87.45,171.93Z"/><path class="cls-4" d="M51.7,224a1.6,1.6,0,0,1,1.11-.33c3.28,0,6.55.07,9.83.14a23.6,23.6,0,0,1,11.24,2.81c1.36.76,2.77,1.41,4.14,2.15a11.23,11.23,0,0,0,7,1.12,14.66,14.66,0,0,1,10,2,19.1,19.1,0,0,1,3.3,2.72c1.42,1.43,2.87,2.83,4.33,4.23.45.43,1,.78,1.47,1.18.19.14.47.23.41.65a3.82,3.82,0,0,1-.69-.11c-.82-.27-1.63-.55-2.44-.85a34.9,34.9,0,0,0-8.65-2.14c-1.77-.19-3.56-.17-5.34-.26s-3.4-.13-5.09-.33A18.83,18.83,0,0,1,76,235.1a66.85,66.85,0,0,1-6.8-4.08c-2-1.32-4.06-2.62-6.14-3.84A23.62,23.62,0,0,0,54,224.25a18.92,18.92,0,0,0-2.26,0Zm8.85,1.16,0,.11,1.23.56a59.68,59.68,0,0,1,7.72,4.62A53.28,53.28,0,0,0,77.11,235a19.8,19.8,0,0,0,6.67,1.68c1.47.12,2.94.09,4.41.16,1.62.07,3.24.08,4.84.28a35,35,0,0,1,9,2.36l.65.22a3.35,3.35,0,0,0-.25-.28c-1.59-1.53-3.17-3.06-4.78-4.57a28.93,28.93,0,0,0-2.4-2,7.87,7.87,0,0,0-7.17-1.22c-1.11.31-2.21.67-3.32,1a9.83,9.83,0,0,1-3.92.42,11.36,11.36,0,0,1-5.6-2.41c-1-.8-2-1.65-3-2.49a21.17,21.17,0,0,0-4-2.81,5.29,5.29,0,0,0-1.53-.55,41,41,0,0,0-7.6-.4c-.08,0-.17,0-.38.06.53.1.92.16,1.31.25a31.46,31.46,0,0,1,10.09,4.1c2.18,1.38,4.42,2.66,6.67,3.93a16.86,16.86,0,0,0,7.06,1.87c1.39.1,2.77.17,4.15.24a27.81,27.81,0,0,1,7.52,1.38c1.07.36,2.12.79,3.18,1.18l0,.12c-.33-.1-.68-.19-1-.32a34.7,34.7,0,0,0-11-2.08c-1.34-.07-2.69-.15-4-.25a15.32,15.32,0,0,1-5.43-1.5,67.12,67.12,0,0,1-7-4,32.62,32.62,0,0,0-8.84-3.89Zm9,.14,0,.09s.07.1.12.13A35.9,35.9,0,0,1,74.11,229a18.38,18.38,0,0,0,3.27,2.34,9.86,9.86,0,0,0,4.14,1.2,13.81,13.81,0,0,0,4.5-.81,15,15,0,0,1,4.78-1,4.79,4.79,0,0,0-.89-.27,16.11,16.11,0,0,0-5.14-.06,11.91,11.91,0,0,1-6.85-1.11l-1.8-.91c-1.42-.72-2.83-1.47-4.27-2.16C71.1,225.91,70.31,225.65,69.54,225.34Z"/><path class="cls-4" d="M144.22,189.66l5,1a4,4,0,0,1,3.07-.62,27.59,27.59,0,0,1,3.26.63,1.23,1.23,0,0,1,1,.69c0,.43-.38.56-.69.61a6,6,0,0,1-1.63.11c-1.36-.19-2.72-.46-4.07-.73a5.41,5.41,0,0,1-1-.46,19.16,19.16,0,0,1-5-1.09Zm5.78,1.12c.06.07.08.12.11.13a14.37,14.37,0,0,0,5.48.77,2.55,2.55,0,0,0,.52-.19C155.07,190.6,151.3,190.18,150,190.78Z"/><path class="cls-4" d="M141.75,188h2.44a4,4,0,0,0,1.75-.34,5.09,5.09,0,0,1,1.72-.28c.81-.08,1.62-.18,2.44-.2a14.54,14.54,0,0,1,2.19.11,3.49,3.49,0,0,1,.94.38.71.71,0,0,1-.37,1,4.44,4.44,0,0,1-1.82.45,10.44,10.44,0,0,1-3-.3c-.77-.18-1.54-.39-2.31-.55a1.79,1.79,0,0,0-.69,0A7.25,7.25,0,0,1,141.75,188Zm4.71-.05,0,.14,1.22.24a10.68,10.68,0,0,0,3.86.3,1.79,1.79,0,0,0,1.38-.63,1.33,1.33,0,0,0-.39-.24,7.67,7.67,0,0,0-1.49-.18c-1.47.06-2.93.18-4.39.28A1,1,0,0,0,146.46,188Z"/><path class="cls-4" d="M153.32,189.55c-2,.37-9.48,0-10.43-.6a7.24,7.24,0,0,1,.76,0c.94.07,1.88.18,2.82.25s1.84.11,2.76.13c1.35,0,2.69,0,4,0a7.17,7.17,0,0,1,5.6-.23c.11.48.06.67-.42.76a13.54,13.54,0,0,1-2.37.26,9.87,9.87,0,0,1-1.86-.24A4.15,4.15,0,0,1,153.32,189.55Zm5.21-.23a4.31,4.31,0,0,0-2.32-.33c-1.52,0-1.9.09-2.18.44A6.28,6.28,0,0,0,158.53,189.32Z"/><path class="cls-4" d="M139.06,186.49a25.72,25.72,0,0,0,7.57-1.84c.09-.54.55-.75,1-1,.67-.43,1.31-.91,2-1.37.38-.27.73-.56,1.11-.83a.89.89,0,0,1,.89-.15.7.7,0,0,1,.18.91,3.46,3.46,0,0,1-.75,1,9.09,9.09,0,0,1-3,1.56.69.69,0,0,1-.31.06,3.52,3.52,0,0,0-1.8.43,19.2,19.2,0,0,1-4.85,1.23A5.44,5.44,0,0,1,139.06,186.49Zm12.27-4.92a3.51,3.51,0,0,0-1.39.89l-1.33,1c-.41.33-.94.47-1.28.92a1.77,1.77,0,0,0,.74-.11,15.94,15.94,0,0,0,1.87-.88,7.21,7.21,0,0,0,1.25-1A.63.63,0,0,0,151.33,181.57Z"/><path class="cls-4" d="M147,191.41a14.28,14.28,0,0,1-2.66-1.08,2.45,2.45,0,0,1,.39,0l2.41.7a1,1,0,0,0,.36.1,3.71,3.71,0,0,1,2,.54,9.36,9.36,0,0,1,2.65,1.89,3.12,3.12,0,0,1,.56.75c.26.5.07.85-.49.84a3.17,3.17,0,0,1-1.09-.23,7,7,0,0,1-2-1.44c-.52-.48-1.06-1-1.57-1.45A4.52,4.52,0,0,1,147,191.41Zm5.39,3.49c-.32-1.3-3.31-3.31-4.7-3.28.06.08.08.16.14.21.62.56,1.22,1.14,1.88,1.66a13.14,13.14,0,0,0,1.72,1.14A4.32,4.32,0,0,0,152.38,194.9Z"/><path class="cls-4" d="M3.49,243.13c.18-.15.36-.29.52-.45a49.63,49.63,0,0,1,11.06-8.49,50.18,50.18,0,0,1,11.85-4.53c2.39-.6,4.81-1.14,7.22-1.71.28-.07.58-.17.76.25l-3.51.79a78.48,78.48,0,0,0-10.93,3.17,43.74,43.74,0,0,0-13.62,8.46c-1,.9-1.95,1.85-2.93,2.77-.13.13-.28.25-.42.37Z"/><path class="cls-4" d="M121.65,175.57c.12-.13.25-.25.37-.39a23.82,23.82,0,0,1,13.83-8.41,11.17,11.17,0,0,1,7.6.84,5.46,5.46,0,0,1,1.88,1.56,3.86,3.86,0,0,1,.5,4.15,9.73,9.73,0,0,1-2.37,3.24c-1.26,1.14-2.48,2.33-3.62,3.59a11.2,11.2,0,0,1-6.84,3.56l-1.45.21c.27.09.41.17.56.2a34.68,34.68,0,0,1,6.74,2,15.77,15.77,0,0,1,5.33,3.5,7.15,7.15,0,0,1,2.12,4.41,5.86,5.86,0,0,1-1.37,4.45l-.37.44s0,0,0,.12l.4.41a3,3,0,0,1,.7,3.47,11.44,11.44,0,0,1-.71,1.34,9.63,9.63,0,0,0-1.12,2.59,9,9,0,0,1-.54,1.47,3.5,3.5,0,0,1-3.59,1.91,6.82,6.82,0,0,1-3-1.1l-6.45-4.07-.64-.37-.1.09c.17.22.33.45.51.67a15,15,0,0,1,2.6,4.43,2,2,0,0,0,.81.94c.65.46,1.3.92,1.93,1.41a2.41,2.41,0,0,1,1,2,1.34,1.34,0,0,1-.56,1.13A3.28,3.28,0,0,1,134,216a8,8,0,0,1-3-.32,15.9,15.9,0,0,1-5.39-2.82,22.5,22.5,0,0,1-7.15-9.27c-.29-.74-.51-1.51-.78-2.28-.06,0-.14.06-.15.1-.36,1.23-.69,2.47-1.06,3.69a10.77,10.77,0,0,0-.2,5.23c.16.84.32,1.69.41,2.54A4.83,4.83,0,0,1,116,216a3,3,0,0,1-3.55,1.15,5.21,5.21,0,0,1-1.58-.88,11.49,11.49,0,0,1-4.12-7.37,9.34,9.34,0,0,1,2.8-8.22c.9-.9,1.88-1.74,2.85-2.58a16.28,16.28,0,0,0,3.57-4.44,15.7,15.7,0,0,0,.81-1.71,1.81,1.81,0,0,0-1.71-2.69,22.25,22.25,0,0,0-3.65,0c-2.09.21-4.17.48-6.23.85a36.35,36.35,0,0,0-12.81,4.53A35.22,35.22,0,0,0,84.91,201c-2.54,2.72-5,5.48-7.61,8.17a58.48,58.48,0,0,1-9.62,8.21,49.65,49.65,0,0,1-13.52,6.21c-4.08,1.24-8.23,2.18-12.38,3.15l-2.83.64-.18-.32a1.31,1.31,0,0,1,.3-.14c2.71-.64,5.43-1.25,8.15-1.91a96.87,96.87,0,0,0,10.92-3.22,47.11,47.11,0,0,0,14.91-9.13,114.8,114.8,0,0,0,8.61-8.76c1.3-1.44,2.62-2.85,4-4.25a31.47,31.47,0,0,1,14.63-8.77,53.45,53.45,0,0,1,7.83-1.56c1.85-.23,3.71-.41,5.57-.63a4.57,4.57,0,0,0,3.11-1.59,2.42,2.42,0,0,0,.56-2.28,55.55,55.55,0,0,0-3-8.88c-.9-2.1-1.77-4.22-2.49-6.39a11,11,0,0,1-.21-6.63,6.13,6.13,0,0,1,.81-1.76,1.82,1.82,0,0,1,3.19-.1,10.19,10.19,0,0,1,1.25,2.32c.4,1,.63,2.09,1,3.11a18.86,18.86,0,0,0,1,2.3c.6,1.15,1.28,2.26,1.89,3.41a6.41,6.41,0,0,1,.77,3.09,1,1,0,0,0,0,.24S121.6,175.53,121.65,175.57Zm4.9,8.37c-.62.09-1.81.2-3,.43a8.93,8.93,0,0,0-4.66,2.48,3.33,3.33,0,0,0-1.1,2.13l-.09,1.13a8.75,8.75,0,0,0,1.5,5.68,17.11,17.11,0,0,0,3.29,3.71,32.51,32.51,0,0,0,4.61,3.3c3.26,1.88,6.47,3.84,9.61,5.91a7.71,7.71,0,0,0,1.51.78,4.88,4.88,0,0,0,1.45.35,3,3,0,0,0,3.41-2.18,18.89,18.89,0,0,1,2-4.52l.06-.12a2.75,2.75,0,0,0-.6-3.33c-.64-.54-.6-.65-.08-1.27a5.65,5.65,0,0,0,1.1-5.66,8.55,8.55,0,0,0-3.24-4.16,20.74,20.74,0,0,0-6-2.93A32.19,32.19,0,0,0,126.55,183.94Zm-8.08,2.12a4.14,4.14,0,0,0,.74-.23c.31-.15.57-.36.86-.53a15,15,0,0,1,9.09-1.59,6.79,6.79,0,0,0,4-.73,8.38,8.38,0,0,0,2.9-2.65,9,9,0,0,1,4.33-3.32,14.24,14.24,0,0,0,3.68-2,4.37,4.37,0,0,0,1.57-2.15,3.4,3.4,0,0,0-.34-3.08,5,5,0,0,0-1.76-1.67,10.13,10.13,0,0,0-5.52-1.19,16.07,16.07,0,0,0-4.79,1,23.57,23.57,0,0,0-12.89,10.43,15.21,15.21,0,0,0-2.16,6.71A1.1,1.1,0,0,0,118.47,186.06Zm-1.26,5.84-.21.43c-.3.63-.57,1.26-.91,1.87a17.64,17.64,0,0,1-4.26,4.93c-.71.59-1.4,1.21-2,1.87a9,9,0,0,0-2.74,6,11,11,0,0,0,4,9,4.5,4.5,0,0,0,1.53.85,2.56,2.56,0,0,0,2.93-.88,3.93,3.93,0,0,0-.31-5.1,7.6,7.6,0,0,1-1.18-7.76,20,20,0,0,1,1.2-2.35c.37-.68.82-1.32,1.16-2A9.74,9.74,0,0,0,117.21,191.9Zm.45-7.33.12,0,.12-.54c.11-.59.2-1.2.35-1.79a15,15,0,0,1,1.91-4.43,1.09,1.09,0,0,0,.18-1c-.25-.69-.42-1.41-.73-2.07-.41-.89-.92-1.74-1.4-2.6a11.83,11.83,0,0,1-1.29-3.47c-.21-1.13-.34-2.28-.54-3.42s-.41-2.09-.64-3.13a2.09,2.09,0,0,0-.8-1.25,1.33,1.33,0,0,0-1.88.07,3.48,3.48,0,0,0-1,1.54,9.64,9.64,0,0,0-.51,3.65,14,14,0,0,0,.94,4.48c.68,1.72,1.37,3.43,2.1,5.12a48.53,48.53,0,0,1,2.54,7.11C117.33,183.4,117.5,184,117.66,184.57ZM118,199l-.09.45a5.41,5.41,0,0,0,.31,2.11,21.4,21.4,0,0,0,8.48,11.62,13.61,13.61,0,0,0,5.74,2.46,4.36,4.36,0,0,0,2.82-.35,1.18,1.18,0,0,0,.62-1.64,2.67,2.67,0,0,0-1.15-1.37,34.93,34.93,0,0,0-4.19-2.55c-1.06-.5-2.08-1.08-3.12-1.64a21.46,21.46,0,0,1-9.16-8.74C118.18,199.22,118.1,199.15,118,199Zm14.37,11.17c-.26-.57-.45-1.06-.7-1.52a20.44,20.44,0,0,0-2.11-3.13,8.85,8.85,0,0,0-2.51-2.25,33.05,33.05,0,0,1-4.62-3.28,17.16,17.16,0,0,1-4-4.68,4.55,4.55,0,0,0-.25-.41,5.17,5.17,0,0,0,0,.53,18.1,18.1,0,0,1,0,2,3.16,3.16,0,0,0,.49,2,19.83,19.83,0,0,0,6.19,6.69,72.49,72.49,0,0,0,7.23,4.09C132.06,210.11,132.13,210.1,132.33,210.12ZM117.74,196a14.71,14.71,0,0,1-2.37,5.18,8.86,8.86,0,0,0-.58,1,7.53,7.53,0,0,0,.68,8.35l.44.54.11-.07a5,5,0,0,1-.07-.54,19.86,19.86,0,0,1-.25-3.07,13,13,0,0,1,.59-3,33.84,33.84,0,0,0,1.45-7.19C117.77,196.86,117.74,196.45,117.74,196Zm15.41-12.77.25.06a11,11,0,0,0,6.06-3.34,39.9,39.9,0,0,1,3.74-3.73c.16-.14.3-.31.45-.47l-.1-.11a18.8,18.8,0,0,1-4,2.07,7.79,7.79,0,0,0-2.95,2.39A9.55,9.55,0,0,1,133.15,183.27Zm-12.47-6.43a1.69,1.69,0,0,0,.62-1.61q-.08-.58-.21-1.17a12.11,12.11,0,0,0-1.77-3.8,16.69,16.69,0,0,1-2.31-5.34c-.1-.42-.26-.82-.4-1.24a.39.39,0,0,0-.08.31c.15,1,.32,2,.46,3a15.34,15.34,0,0,0,1.68,5.23A15.27,15.27,0,0,1,120.68,176.84Z"/><path class="cls-4" d="M117.64,185a20.58,20.58,0,0,0-.21-6.69,59,59,0,0,0-1.74-6.48,13.89,13.89,0,0,1,1,2.61c.28.9.56,1.8.77,2.72s.38,1.89.5,2.84.13,1.86.2,2.89c.12-.2.2-.32.26-.44a17.65,17.65,0,0,1,6.39-6.81,35.27,35.27,0,0,1,10.86-4.34,2,2,0,0,1,.81,0l-.55.1A35.26,35.26,0,0,0,123.31,177a16.65,16.65,0,0,0-4.52,5.11,5.49,5.49,0,0,0-.8,2.23,5,5,0,0,1-.18.63Z"/><path class="cls-4" d="M111,210.28c-.19-1-.42-1.91-.56-2.88a12.38,12.38,0,0,1,3-10,15.34,15.34,0,0,0,2.2-3.19,1.3,1.3,0,0,1-.28,1c-.57.86-1.12,1.73-1.76,2.53a13.9,13.9,0,0,0-2.9,6.46,10.36,10.36,0,0,0,0,3.38c.14.89.27,1.78.41,2.66Z"/><path class="cls-4" d="M117.8,186.58a7.14,7.14,0,0,1,1-3.47,19.39,19.39,0,0,1,4.8-5.29,26.45,26.45,0,0,1,5.33-3.2l.64-.27a.24.24,0,0,1,.2,0l-.5.26a27.45,27.45,0,0,0-6.9,4.58,18.45,18.45,0,0,0-3.19,3.8,8.33,8.33,0,0,0-1.27,3.06A4.48,4.48,0,0,1,117.8,186.58Z"/><path class="cls-4" d="M117.8,188.64l.24.89a15.81,15.81,0,0,0,3.55,6.45,34.55,34.55,0,0,0,7.15,5.94,1.49,1.49,0,0,1,.48.43l-.23-.11a39.77,39.77,0,0,1-6-4.44,18,18,0,0,1-4.3-5.62,14.59,14.59,0,0,1-1.06-3.34.55.55,0,0,1,0-.18Z"/><path class="cls-4" d="M142.31,192.22a35.19,35.19,0,0,0-8.36-4.13,31.4,31.4,0,0,0-9.11-1.63C131.12,186.05,139.08,189.38,142.31,192.22Z"/><path class="cls-4" d="M128.29,196.59c-.69-.35-1.39-.67-2.06-1a34.44,34.44,0,0,1-5.75-3.83,9.87,9.87,0,0,1-2.23-2.63,2,2,0,0,1-.34-1.25,2.49,2.49,0,0,1,.11-.28,8,8,0,0,0,3,4.26,39.78,39.78,0,0,0,6.52,4.27l.76.4Z"/><path class="cls-4" d="M118.64,203.48a17.07,17.07,0,0,0,3.93,4.61,35.43,35.43,0,0,0,5.18,3.32C124.75,210.87,119.07,205.94,118.64,203.48Z"/><path class="cls-4" d="M137.46,175a32.43,32.43,0,0,1,8.35-1.83c.07.33-.11.35-.28.37-1,.16-2.07.3-3.09.49-1.58.31-3.14.67-4.71,1A1.53,1.53,0,0,1,137.46,175Z"/><path class="cls-4" d="M138.4,197.08c2.08.52,4,1.2,5.94,1.87.06,0,.09.11.22.29a3.29,3.29,0,0,1-.7-.05c-1.77-.64-3.53-1.3-5.3-2C138.53,197.22,138.51,197.18,138.4,197.08Z"/><path class="cls-4" d="M133,179.09a45.85,45.85,0,0,0-7.56,3.5c.28-.19.55-.4.84-.57a28.26,28.26,0,0,1,5.44-2.73c.4-.14.83-.24,1.24-.36Z"/><path class="cls-4" d="M130.12,188.2a23.73,23.73,0,0,1,8.29,2.84A42.49,42.49,0,0,0,130.12,188.2Z"/><path class="cls-4" d="M111.9,198.68a20.54,20.54,0,0,0-2.31,7.08A12.72,12.72,0,0,1,111.9,198.68Z"/><path class="cls-4" d="M138.63,205.71l4.75,1.88c-.1.06-.19.17-.27.16a2.11,2.11,0,0,1-.61-.16c-1.24-.55-2.47-1.12-3.71-1.69a.85.85,0,0,1-.19-.14Z"/><path class="cls-4" d="M133.52,203.81a26.47,26.47,0,0,1-5.9-3.46Z"/><path class="cls-4" d="M126.79,194.73a15,15,0,0,1-4.92-3Z"/><path class="cls-4" d="M138.71,168.15a7.72,7.72,0,0,1,4.43-.65,12,12,0,0,1-2.21.31C140.23,168,139.5,168,138.71,168.15Z"/><path class="cls-4" d="M121.1,207.79l2.84,2.45A5.93,5.93,0,0,1,121.1,207.79Z"/><path class="cls-4" d="M142,199.12l3.1.92s.07.09.18.23a12.31,12.31,0,0,1-3.31-1Z"/><path class="cls-4" d="M118.48,180.14l-.66-3.64A8.29,8.29,0,0,1,118.48,180.14Z"/><path class="cls-4" d="M141.46,168.16a4.12,4.12,0,0,1,2.08-.23A4.34,4.34,0,0,1,141.46,168.16Z"/><path class="cls-4" d="M13.26,196.83a5.11,5.11,0,0,1,.39.42c.64.91,1.31,1.81,1.9,2.75a61,61,0,0,0,9.61,11.48c2.72,2.62,5.47,5.22,8.14,7.89a39,39,0,0,1,9.63,16.55c.26.84.39,1.71.57,2.57l-.14.06a2.67,2.67,0,0,1-.32-.43,26.2,26.2,0,0,0-6.43-8.4,67.2,67.2,0,0,0-5.5-4.11c-2.45-1.7-5-3.26-7.44-5a22.11,22.11,0,0,1-7.33-8.18,19.25,19.25,0,0,1-1.86-6c-.38-2.7-.75-5.4-1.14-8.1,0-.31-.14-.61-.2-.92a4.41,4.41,0,0,1,0-.52ZM41.1,232.19c-.08-.21-.11-.35-.17-.48a43.6,43.6,0,0,0-3.79-7,17,17,0,0,0-5.81-5.41c-1.57-.89-3.19-1.68-4.79-2.51A15.38,15.38,0,0,1,21.61,213a21.49,21.49,0,0,1-3.23-5.46c-1.24-2.89-2.53-5.76-4-8.53-.15-.27-.31-.53-.46-.79a.57.57,0,0,0-.06.41c.29,2.1.57,4.2.89,6.29a31.72,31.72,0,0,0,.72,3.89,19.12,19.12,0,0,0,5.35,8.83,38.15,38.15,0,0,0,5.61,4.28c2.25,1.46,4.49,3,6.72,4.46a29.47,29.47,0,0,1,8.4,8.25,2.05,2.05,0,0,0,.25.27c0-.07,0-.12,0-.15a4.47,4.47,0,0,0-.19-.46,20,20,0,0,0-3.25-4.93,34.68,34.68,0,0,0-6.84-6A62.25,62.25,0,0,1,23,216.11a24.2,24.2,0,0,1-5.81-9.26c-.2-.58-.36-1.16-.55-1.74a6.21,6.21,0,0,1,.61,1.31,23.91,23.91,0,0,0,5.51,8.93,62,62,0,0,0,8.75,7.51,36.17,36.17,0,0,1,6.78,5.81C39.23,229.77,40.11,231,41.1,232.19ZM17,203l-.08.07c.91,2,1.78,4.08,2.77,6.07a21.62,21.62,0,0,0,1.94,3.09,15.36,15.36,0,0,0,5.73,4.42c1.7.86,3.36,1.81,5,2.72l.26.13a1.77,1.77,0,0,0-.43-.6c-2.07-2-4.13-4-6.22-6a73.46,73.46,0,0,1-8.81-9.68C17.11,203.15,17,203.08,17,203Z"/><path class="cls-4" d="M41.84,254.1c.13-2.28.24-4.57.41-6.85.15-1.93.37-3.85.56-5.77s.37-3.72.58-5.57a52,52,0,0,0,.37-7.17,36.31,36.31,0,0,0-1.08-7.4c-.78-3.35-1.6-6.69-2.36-10.05a52.26,52.26,0,0,1-1.1-11.7c0-2.52,0-5.05,0-7.57a13.45,13.45,0,0,0-1.13-5.38,4,4,0,0,0-2.69-2.29c-1.68-.45-3.39-.8-5.06-1.28a35.32,35.32,0,0,1-12.52-6.16,25.85,25.85,0,0,1-7.78-10,6.85,6.85,0,0,1-.69-3,2.56,2.56,0,0,1,.19-.86.89.89,0,0,1,1.13-.54,3,3,0,0,1,1,.42,6.59,6.59,0,0,1,1.1.94,20.15,20.15,0,0,0,2.53,2.36c.53.41,1,.9,1.58,1.33-.08-.17-.15-.34-.23-.5a29.75,29.75,0,0,1-2.81-7.93,18.78,18.78,0,0,1-.43-5.07,5,5,0,0,1,.39-1.57,2.35,2.35,0,0,1,3.45-1.06,4.77,4.77,0,0,1,1.22,1.07c.51.63.94,1.33,1.4,2,.31.46.59.92.89,1.38a8.65,8.65,0,0,0,2.51,2.53c.85.55,1.67,1.13,2.51,1.69a2.7,2.7,0,0,0,.31.17c0-.12.06-.2,0-.27a3.55,3.55,0,0,1,.17-2.16,11.21,11.21,0,0,1,2.15-3.82c.82-1,1.51-2,2.24-3,.31-.44.58-.92.87-1.39a6.9,6.9,0,0,1,4.31-3.15,4.25,4.25,0,0,1,2.37.08,7.14,7.14,0,0,1,3.44,2.23,10.06,10.06,0,0,0,2.7,2.34,7,7,0,0,1,2.83,3.38,28.63,28.63,0,0,1,1.6,5.35l.08.33c.08-.22.14-.36.18-.5a10.66,10.66,0,0,1,3.18-5.26,11.45,11.45,0,0,0,2-2.37,6.19,6.19,0,0,1,2-2.05,3.2,3.2,0,0,1,3.51-.24,2,2,0,0,1,1.14,2.42,5.93,5.93,0,0,1-.4,1.32A60.62,60.62,0,0,0,57,164.41c-.39,1.55-.77,3.1-1.15,4.65,0,.16-.07.32-.14.62.17-.19.27-.28.34-.38a19,19,0,0,0,3.36-8.13,13.19,13.19,0,0,1,1.26-4,4.84,4.84,0,0,1,.71-1,.87.87,0,0,1,1-.31.92.92,0,0,1,.66.84,15.2,15.2,0,0,1,.1,2.33,26,26,0,0,1-2.35,8.71,47.22,47.22,0,0,1-3.21,6,26.91,26.91,0,0,1-6.23,6.63,20.25,20.25,0,0,1-6.55,3.56,9.6,9.6,0,0,0-3.45,1.77,4.54,4.54,0,0,0-1.75,3.73c.08,4.49.06,9,.16,13.49a49.63,49.63,0,0,0,1.42,10.21c.74,3.19,1.54,6.36,2.27,9.55a30.56,30.56,0,0,1,.72,9.58c-.24,2.63-.5,5.26-.75,7.9-.23,2.36-.48,4.72-.67,7.08-.16,2.09-.26,4.19-.38,6.29,0,.21,0,.42,0,.62Zm7-89.29c0-.6-.09-1.42-.14-2.24a26.15,26.15,0,0,0-1.82-7.69,6.89,6.89,0,0,0-2.92-3.51,9.54,9.54,0,0,1-2.56-2.22,6.83,6.83,0,0,0-3.31-2.2,3.67,3.67,0,0,0-2-.11,6.5,6.5,0,0,0-4.21,3.07l-.43.69a26.38,26.38,0,0,1-2.95,4.09,8.45,8.45,0,0,0-1.89,3.66,2.74,2.74,0,0,0,.92,3.16c.26.2.49.46.75.67a21.53,21.53,0,0,1,5.62,7.74,45,45,0,0,1,2.84,8.13,20.35,20.35,0,0,0,1.71,4.86,1.66,1.66,0,0,0,2.66.7A9.44,9.44,0,0,0,43.68,181,28,28,0,0,0,48.82,164.81ZM38.11,184.55a5.13,5.13,0,0,0,0-.75,2.06,2.06,0,0,0-.61-1.14c-1.35-1.56-2.7-3.11-4-4.68a24.41,24.41,0,0,1-3.16-4.69,45.41,45.41,0,0,1-2.61-6,23.22,23.22,0,0,0-5.25-8.66,20.72,20.72,0,0,1-3-3.82,19,19,0,0,0-1.35-2,4.7,4.7,0,0,0-1-1,2,2,0,0,0-3,.92,5.27,5.27,0,0,0-.35,1.84A25.12,25.12,0,0,0,15.65,164a36.75,36.75,0,0,0,3.94,7.23,37.29,37.29,0,0,0,5.64,6.58,28.37,28.37,0,0,0,12,6.61A6.59,6.59,0,0,0,38.11,184.55Zm4.29-.62a1.35,1.35,0,0,0,1.28-.11,17.3,17.3,0,0,0,3.68-2.41,26,26,0,0,0,8.51-14.1A73.44,73.44,0,0,1,60.14,153a5.26,5.26,0,0,0,.27-1.6,1.27,1.27,0,0,0-.65-1.15,2.84,2.84,0,0,0-3.31,0,6.45,6.45,0,0,0-2,2,10.73,10.73,0,0,1-1.93,2.32,10.67,10.67,0,0,0-3,4.78,6.36,6.36,0,0,0-.42,2.59,27.06,27.06,0,0,1-.08,6.73,28.35,28.35,0,0,1-3.63,10.47,19.22,19.22,0,0,1-2.71,3.7C42.37,183.21,42.16,183.49,42.4,183.93Zm-9.8-.57,0-.09c-.12-.07-.24-.15-.37-.21a32.6,32.6,0,0,1-12-10.18c-.75-1-1.45-2-2.23-3a30.88,30.88,0,0,0-2.8-3.23c-1-.92-2-1.76-2.95-2.74A4.83,4.83,0,0,0,11,163c-.72-.38-1.23-.08-1.31.74a3.05,3.05,0,0,0,.06,1,13.08,13.08,0,0,0,.67,2.15,25.6,25.6,0,0,0,8.39,10.35,37.25,37.25,0,0,0,12.79,5.88Zm-8.75-24-.09.07a1.19,1.19,0,0,0,.08.16,28.22,28.22,0,0,1,4.53,8.31,30.75,30.75,0,0,0,5.15,9.54c1.15,1.4,2.32,2.78,3.49,4.16a3.26,3.26,0,0,0,.33.31,1.34,1.34,0,0,0-.07-.51c-.25-.76-.53-1.51-.73-2.28-.59-2.3-1.33-4.54-2.14-6.78a24.18,24.18,0,0,0-8.64-11.66C25.14,160.23,24.49,159.81,23.85,159.37ZM46.3,182.89V183c.41-.19.84-.36,1.23-.58a26.93,26.93,0,0,0,8.93-7.84,36.13,36.13,0,0,0,5.78-12.37,14.58,14.58,0,0,0,.45-5.18c0-.4-.15-.75-.59-.87a1.65,1.65,0,0,0-1,1A9,9,0,0,0,60,161.17a26.61,26.61,0,0,1-.7,4.79,23.3,23.3,0,0,1-6.76,11.24C50.5,179.15,48.37,181,46.3,182.89Zm5.44-5.54.11.08A27,27,0,0,0,58,168.89c.84-1.9,1.61-5.15,1.43-5.94a2.22,2.22,0,0,0-.11.3,20.11,20.11,0,0,1-3.79,7.33,2.73,2.73,0,0,0-.39.71,22.7,22.7,0,0,1-3,5.46Z"/><path class="cls-4" d="M36.32,183.89a19.58,19.58,0,0,1-7.21-3.64,16.69,16.69,0,0,1-3.45-3.57,47.11,47.11,0,0,1-6.43-12.34.29.29,0,0,1,0-.24l.15.37a56.39,56.39,0,0,0,5.83,11.12A20.09,20.09,0,0,0,33,182.33C34.06,182.89,35.2,183.37,36.32,183.89Z"/><path class="cls-4" d="M39.89,182.64c1.53-8.45,1.52-16.82-1-25.11a14.72,14.72,0,0,1,1,3.07,47,47,0,0,1,1.23,12.17A45.67,45.67,0,0,1,39.89,182.64Z"/><path class="cls-4" d="M43.71,184c4.73-5.12,5.46-6.83,8.44-13.39,0,.14-.07.29-.12.43a37.36,37.36,0,0,1-5.39,10.2,31.38,31.38,0,0,1-2.21,2.41,3.72,3.72,0,0,1-.64.46Z"/><path class="cls-4" d="M43.18,182a40.76,40.76,0,0,0,2.65-13.66C46.57,171.64,44.65,180.37,43.18,182Z"/><path class="cls-4" d="M23,163.94a46.78,46.78,0,0,1-3.32-9c.38,0,.44.17.5.36l.57,1.73L23,163.78S23,163.85,23,163.94Z"/><path class="cls-4" d="M41.69,149.2c.43.09.53.41.62.69.28.9.57,1.8.76,2.72.33,1.67.6,3.34.87,5,.08.51.09,1,.13,1.54C43.23,155.85,42.87,152.43,41.69,149.2Z"/><path class="cls-4" d="M32.37,180.82c-3.73-1.66-6-4.68-7.83-8.21l.34.48c.91,1.27,1.79,2.58,2.76,3.82a17.13,17.13,0,0,0,4.21,3.56Z"/><path class="cls-4" d="M13,164.33a6.43,6.43,0,0,1,1,1.53c.29.49.55,1,.84,1.47s.61,1,.93,1.5.61.95.92,1.42l1,1.52C16.47,171,13.13,165.71,13,164.33Z"/><path class="cls-4" d="M39.3,164.93a34.74,34.74,0,0,1,.57,12A59.08,59.08,0,0,0,39.3,164.93Z"/><path class="cls-4" d="M54.2,152.61,51.51,160C51.78,157.86,53.5,153,54.2,152.61Z"/><path class="cls-4" d="M31.84,157.24a17.12,17.12,0,0,1-1-6.36c.36.45.23,1,.34,1.51s.11,1.09.17,1.63.15,1.07.23,1.61Z"/><path class="cls-4" d="M18.57,152.79c.52,1.58.81,3.21,1.2,4.89A13.34,13.34,0,0,1,18.57,152.79Z"/><path class="cls-4" d="M31.47,149.8a18.91,18.91,0,0,1,.48,3.9A11,11,0,0,1,31.47,149.8Z"/><path class="cls-4" d="M50.06,173.27a12.55,12.55,0,0,1-1.52,3.52l-.11,0C49,175.58,49.52,174.42,50.06,173.27Z"/><path class="cls-4" d="M53,154.11c-.4.87-.79,1.74-1.19,2.62a7.14,7.14,0,0,1,1-2.74Z"/><path class="cls-4" d="M50.79,254.1c0-1.89-.08-3.78-.17-5.67-.07-1.59-.18-3.18-.31-4.77-.12-1.43-.28-2.85-.42-4.27-.16-1.61-.38-3.21-.44-4.83-.14-3.57-.24-7.14-.25-10.71,0-2.25.09-4.5.24-6.74a31.85,31.85,0,0,1,5.11-15.18c1.38-2.13,2.82-4.23,4.18-6.38a113.22,113.22,0,0,0,10.61-22c1.69-4.61,3.52-9.18,5.3-13.75.58-1.49,1.27-2.93,1.84-4.42a5,5,0,0,0-1.52-6,29.85,29.85,0,0,1-6.88-9,48,48,0,0,1-4.5-13.65,38.57,38.57,0,0,1-.39-9,22.06,22.06,0,0,1,1.37-6.57,17.93,17.93,0,0,1,1.08-2.2A3.23,3.23,0,0,1,67,107.75a1.61,1.61,0,0,1,2.25.6,3.92,3.92,0,0,1,.58,1.91,21.66,21.66,0,0,1-.43,4.95c-.19,1.13-.34,2.28-.43,3.43a9.17,9.17,0,0,0,.11,1.81c.2,1.67.41,3.33.62,5,0,.13,0,.27.07.54.16-1.28.29-2.43.47-3.57a20.82,20.82,0,0,1,1.45-4.93,33.93,33.93,0,0,0,1.2-3.38,16.18,16.18,0,0,1,4.25-7.26,10.39,10.39,0,0,1,1.37-1.11,4.11,4.11,0,0,1,5.42.75,8.62,8.62,0,0,1,1.38,2.24c.17.38.33.77.47,1.17A13.86,13.86,0,0,0,88,113.82a16.41,16.41,0,0,1,3.28,6.47c.24,1,.33,2,.49,3,0,.14,0,.28.08.52.15-.19.24-.28.32-.4a14.88,14.88,0,0,1,2.33-2.8,6.79,6.79,0,0,1,2.38-1.51,8,8,0,0,0,2.52-1.52,7.37,7.37,0,0,1,3.54-1.84,4.18,4.18,0,0,1,3.88,1.14,8.72,8.72,0,0,1,2.21,4.38,19.59,19.59,0,0,1-.3,9.35,23.46,23.46,0,0,1-2.66,6.17,3,3,0,0,0-.31.72,1.88,1.88,0,0,0,.24-.14q1.77-1.52,3.53-3a14.63,14.63,0,0,0,2.18-2.53,25.41,25.41,0,0,1,1.89-2.26,1.8,1.8,0,0,1,.86-.48,1.38,1.38,0,0,1,1.63,1,3.09,3.09,0,0,1-.07,2.1,20.59,20.59,0,0,1-1.1,2.61,33.35,33.35,0,0,1-9.45,10.77,41.36,41.36,0,0,1-16,7.2,29.74,29.74,0,0,1-6.31.68,23.45,23.45,0,0,0-2.64.2,4,4,0,0,0-2.14,1,7.89,7.89,0,0,0-2.22,2.87c-1.15,2.8-2.31,5.59-3.41,8.4-1.86,4.75-3.6,9.55-5.51,14.28a105,105,0,0,1-10.45,19.24,48.06,48.06,0,0,0-4.31,7.33A31,31,0,0,0,50,215.74a90.26,90.26,0,0,0-.37,11.15c0,2.81.13,5.63.29,8.44.1,1.9.38,3.8.56,5.7.16,1.63.33,3.26.41,4.9.13,2.34.19,4.7.29,7,0,.38.07.75.11,1.12ZM69.93,130.92c0,1.07,0,2.79.17,4.51a27.56,27.56,0,0,0,2.85,10,16.72,16.72,0,0,0,3,4.31,3.41,3.41,0,0,0,3.38,1.05,4,4,0,0,0,2.15-1.24A22.42,22.42,0,0,0,83,147.68a53.37,53.37,0,0,0,4.72-8.24,54.85,54.85,0,0,0,2.66-7.61,23.59,23.59,0,0,0,1-7.57,15.68,15.68,0,0,0-3-9.18,24.2,24.2,0,0,1-3.55-6.35,6,6,0,0,0-1.63-2.37,3.16,3.16,0,0,0-1.78-.87,4.08,4.08,0,0,0-3.28,1A14.3,14.3,0,0,0,75,110.18a20.39,20.39,0,0,0-1.78,4.23c-.35,1.08-.69,2.17-1.14,3.2a20.57,20.57,0,0,0-1.38,4.44A66.19,66.19,0,0,0,69.93,130.92Zm10.38,20.85a1.25,1.25,0,0,0,1.13.55,11.75,11.75,0,0,0,3.07-.18A31,31,0,0,0,92,149.3a32.52,32.52,0,0,0,15-15.21,19.44,19.44,0,0,0,1.7-12.44,9,9,0,0,0-1.8-4.11,3.91,3.91,0,0,0-4.24-1.34,7.3,7.3,0,0,0-2.89,1.61A10,10,0,0,1,97,119.5a6.75,6.75,0,0,0-1.63.93A13.09,13.09,0,0,0,92.27,124a2.9,2.9,0,0,0-.42,1.5,19.43,19.43,0,0,1-.42,3.87,51.28,51.28,0,0,1-6.88,16.81,19.58,19.58,0,0,1-3.84,4.71A1,1,0,0,0,80.31,151.77Zm-6.71-4.08.12-.08c0-.07-.07-.14-.11-.2a27.61,27.61,0,0,1-4-12.74c-.15-2.14-.2-4.28-.25-6.43a40.79,40.79,0,0,0-.55-7.15,8.89,8.89,0,0,1-.23-2.62c.12-1.14.26-2.29.44-3.43a23.43,23.43,0,0,0,.44-4.5,4,4,0,0,0-.52-1.93,1.26,1.26,0,0,0-1.88-.49,2.9,2.9,0,0,0-1.19,1.19,19.87,19.87,0,0,0-1.11,2.39,23.18,23.18,0,0,0-1.28,7.1,40.18,40.18,0,0,0,.64,9.09,48.52,48.52,0,0,0,2.28,7.84,34.55,34.55,0,0,0,6.06,10.69C72.85,146.85,73.23,147.26,73.6,147.69Zm8.52,5.23.51,0a25.49,25.49,0,0,0,5.52-.41,42.68,42.68,0,0,0,10.62-3.49,35.81,35.81,0,0,0,14.42-12.27,19.07,19.07,0,0,0,2.36-4.52,3.69,3.69,0,0,0,.2-1.92,1,1,0,0,0-1.73-.66,6.47,6.47,0,0,0-1.21,1.35c-.83,1.27-1.61,2.56-2.39,3.86a39.57,39.57,0,0,1-3.21,4.82,29.89,29.89,0,0,1-4.8,4.54,34.83,34.83,0,0,1-10.5,5.88c-1.33.45-2.64,1-4,1.41-1.05.35-2.11.69-3.19.95C83.93,152.7,83.09,152.77,82.12,152.92Zm28.22-18.74a4.21,4.21,0,0,0-.36.24c-1.27,1.09-2.56,2.17-3.8,3.29A18.06,18.06,0,0,0,104,140a35.43,35.43,0,0,1-10.2,8.88c-.12.07-.23.17-.41.3a1.28,1.28,0,0,0,.21,0l.58-.25a34.93,34.93,0,0,0,6.78-4,29.29,29.29,0,0,0,9.19-10.28A4.8,4.8,0,0,0,110.34,134.18Z"/><path class="cls-4" d="M55.09,176.56c2.21,4.32,4.25,8.65,5,13.48L60,188.45c-.08-1.23-.16-2.47-.26-3.7a19.56,19.56,0,0,0-1.21-5c-.59-1.6-1.16-3.2-1.74-4.8A.75.75,0,0,1,57,174c.11.33.19.63.29.92.58,1.6,1.15,3.2,1.74,4.79a20.39,20.39,0,0,1,1.24,5.51c.11,1.38.18,2.76.25,4.14,0,1.09.07,2.19.09,3.28a1,1,0,0,1-.32,1c-.38,0-.41-.31-.47-.56a25.49,25.49,0,0,0-2.26-6.13c-.88-1.62-1.92-3.16-2.92-4.71-.55-.85-1.17-1.64-1.76-2.46l-.42-.63.33-.32c2.66,3.68,5.42,7.2,6.73,11.59l.16-.06c-.07-.46-.13-.93-.22-1.4a36.51,36.51,0,0,0-3.6-10c-.3-.57-.57-1.17-.86-1.75C54.87,177,54.76,176.78,55.09,176.56Z"/><path class="cls-4" d="M41.21,137.92a.76.76,0,0,1,.29.09,2,2,0,0,1,.36.35,73.72,73.72,0,0,1,6.25,8.76,53.76,53.76,0,0,1,3.43,7.63c.09.26.23.52-.18.74-.1-.24-.2-.48-.29-.73a46.42,46.42,0,0,0-4-8.59c-.92-1.45-1.94-2.84-2.93-4.24-.56-.79-1.15-1.56-1.72-2.33a2.77,2.77,0,0,0-.52-.57,92.65,92.65,0,0,1,2.74,12.55c-.38,0-.45-.19-.5-.47-.19-1.11-.4-2.22-.59-3.34a63.11,63.11,0,0,0-2.09-8.66c-.11-.32-.17-.65-.25-1A.73.73,0,0,1,41.21,137.92Z"/><path class="cls-4" d="M45.15,146.05c.18.35.38.7.54,1.06a80.19,80.19,0,0,1,3.86,10.62,1,1,0,0,1-.1,1A107.63,107.63,0,0,0,45,146.09Z"/><path class="cls-4" d="M79.28,119.15c-.53,1.85-1.07,3.7-1.59,5.55a58.49,58.49,0,0,0-1.59,7.66,42.33,42.33,0,0,0-.49,7.71,20.83,20.83,0,0,0,1.94,8.25l.24.52s0,.11,0,.23c-.1-.15-.21-.3-.3-.46a15.17,15.17,0,0,1-1.8-5.32A26.36,26.36,0,0,1,75.3,138c.09-1.63.29-3.26.47-4.88a41.82,41.82,0,0,1,1.16-6.28c.68-2.51,1.44-5,2.16-7.47a2.53,2.53,0,0,1,.12-.23Z"/><path class="cls-4" d="M73.27,118.71c-.31,1.16-.64,2.32-.94,3.49a42.27,42.27,0,0,0-1,5.61,50.5,50.5,0,0,0-.37,5.77,27.41,27.41,0,0,0,1.71,9.9c.06.18.12.36.17.54,0,0,0,0,0,.17-.12-.27-.22-.46-.29-.65a21.18,21.18,0,0,1-1.65-6.35,41.44,41.44,0,0,1-.22-4.45A46.88,46.88,0,0,1,73.08,119c0-.11.1-.21.14-.32Z"/><path class="cls-4" d="M85.11,149.47a40.68,40.68,0,0,0,15-18.94c-.19,1.57-3.88,8.32-5.85,10.79A34.06,34.06,0,0,1,85.11,149.47Z"/><path class="cls-4" d="M111,136.71c-4,7.3-13.7,13.5-20.83,14.58C98.92,148.93,106,144.28,111,136.71Z"/><path class="cls-4" d="M86.24,137.76c-.38,1.12-.72,2.25-1.14,3.36q-1,2.7-2.16,5.36a16.54,16.54,0,0,1-2.18,3.6,4.85,4.85,0,0,1-.73.77,1,1,0,0,1-.58.16,9.32,9.32,0,0,0,1.9-2.4,31.15,31.15,0,0,0,2.62-5.5L86,137.92a1.13,1.13,0,0,1,.13-.2Z"/><path class="cls-4" d="M68.86,117.67c-.14,2.37-.34,4.74-.41,7.12s0,4.74,0,6.83a41.79,41.79,0,0,1-.18-10,30.8,30.8,0,0,1,.42-3.94Z"/><path class="cls-4" d="M88.46,129.15c.5-3.8,1.52-7.53,1.48-11.44.35.05.32.27.31.44a24.2,24.2,0,0,1-.17,2.95c-.35,2.18-.8,4.36-1.23,6.53C88.75,128.14,88.6,128.64,88.46,129.15Z"/><path class="cls-4" d="M107.23,117.61c.34.26.27.52.24.79a30.28,30.28,0,0,1-1.08,4.89c-.29,1-.65,1.94-1,2.89C106,123.35,106.83,120.58,107.23,117.61Z"/><path class="cls-4" d="M77.53,129c-.56,4.2-1.3,8.4-.71,12.68a2.39,2.39,0,0,1-.13-.28c0-.12,0-.25,0-.37a19.35,19.35,0,0,1-.13-5.32c.09-1,.15-2,.29-2.93.17-1.28.4-2.55.6-3.82Z"/><path class="cls-4" d="M89.05,145c1.19-1.57,2.36-3,3.4-4.51s1.94-3.13,2.89-4.69C95.13,137.33,91.05,143.35,89.05,145Z"/><path class="cls-4" d="M85,137l2.72-11C87.93,126.91,86,134.76,85,137Z"/><path class="cls-4" d="M96.8,143.39a39.41,39.41,0,0,0,7.45-8.49C103.7,136.74,99.46,141.59,96.8,143.39Z"/><path class="cls-4" d="M84.38,119.25c0-1.49,1.42-6.86,2-7.38.18.27.05.51,0,.76l-1.71,5.59C84.56,118.53,84.48,118.85,84.38,119.25Z"/><path class="cls-4" d="M78.25,110.28c.32-1.77,1.5-4.6,2.17-5.16a3.91,3.91,0,0,1-.1.59Z"/><path class="cls-4" d="M99.23,118.23a21.23,21.23,0,0,1-1.46,5,38.21,38.21,0,0,1,1.21-5.1Z"/><path class="cls-4" d="M67.69,119.35c-.11,1.71-.23,3.42-.34,5.17A12.77,12.77,0,0,1,67.69,119.35Z"/><path class="cls-4" d="M108.28,119a11.35,11.35,0,0,1-.83,4.48l.66-4.51Z"/><path class="cls-4" d="M107.56,142a9.31,9.31,0,0,1-2.81,2.64Z"/><path class="cls-4" d="M86.22,115.78a11.9,11.9,0,0,1,.73-2.89A5.17,5.17,0,0,1,86.22,115.78Z"/><path class="cls-4" d="M119,148.29a1.75,1.75,0,0,1-.4.22A28.13,28.13,0,0,0,112.2,151a48.22,48.22,0,0,0-9.43,6,38.44,38.44,0,0,1-5.26,3.59,34.26,34.26,0,0,1-7.33,2.81c-2,.57-4,1.05-6,1.72A33.42,33.42,0,0,0,71.36,173c-.65.63-1.22,1.33-1.85,2-.19.19-.32.57-.79.36l.24-.43c1.2-2,2.37-4,3.61-5.91a32.35,32.35,0,0,1,8.86-9.38,18.76,18.76,0,0,1,7.92-3.21c1-.16,2.05-.18,3.07-.3,1.4-.17,2.8-.3,4.17-.59a10.1,10.1,0,0,0,2.5-1c1.86-1,3.65-2.08,5.51-3.05a41.29,41.29,0,0,1,9.2-3.38,10.9,10.9,0,0,1,4.62-.18,5,5,0,0,1,.61.22Zm-43.27,20.3.08.08a.25.25,0,0,0,.12,0l.48-.29a32,32,0,0,1,8.65-4c1.84-.5,3.67-1,5.51-1.54a30.07,30.07,0,0,0,10.67-5.25l2.55-1.95a46.46,46.46,0,0,1,13.49-7.22,1.3,1.3,0,0,0,.26-.14,5.23,5.23,0,0,0-1.52-.09,14.53,14.53,0,0,0-2,.29,41.07,41.07,0,0,0-9.25,3.4c-1.94,1-3.82,2.13-5.73,3.2a9.84,9.84,0,0,1-3.69,1.17c-1.61.18-3.21.35-4.82.49a17.59,17.59,0,0,0-7.11,2.17,28.42,28.42,0,0,0-7.83,6.66,50.85,50.85,0,0,0-4.7,6.93,1.67,1.67,0,0,0-.08.2l.18.15a4.42,4.42,0,0,1,.39-.57,60.51,60.51,0,0,1,5-4.63,42,42,0,0,1,15.3-8.38,39.93,39.93,0,0,0,6.62-2.39c2.27-1.14,4.51-2.33,6.77-3.49.86-.44,1.74-.86,2.61-1.29-1.34.83-2.72,1.6-4.09,2.37-1,.55-2,1.13-3,1.67a42,42,0,0,1-8.23,3.27,41.42,41.42,0,0,0-14.82,7.7C77,167.59,76.39,168.09,75.77,168.59Z"/><path class="cls-5" d="M40.4,211v14.7H35.78V211Zm-1.64,0h2.8a8.54,8.54,0,0,1,3.51.61,4.18,4.18,0,0,1,2,1.73,6,6,0,0,1,0,5.39,4.1,4.1,0,0,1-2,1.74,8.54,8.54,0,0,1-3.51.61h-2.8v-3.67h2.8a2,2,0,0,0,1.3-.36,1.23,1.23,0,0,0,.44-1,1.25,1.25,0,0,0-.44-1,2.08,2.08,0,0,0-1.3-.35h-2.8Z"/><path class="cls-5" d="M51.08,222.86a5.57,5.57,0,0,0,1.18.41,4.67,4.67,0,0,0,.62.08.62.62,0,0,0,.47-.14.46.46,0,0,0,.14-.34.52.52,0,0,0-.12-.34,1.4,1.4,0,0,0-.54-.32,13.54,13.54,0,0,0-1.32-.45,8,8,0,0,1-1.33-.58,2.71,2.71,0,0,1-1-1,2.94,2.94,0,0,1-.38-1.57,2.47,2.47,0,0,1,.49-1.55,3,3,0,0,1,1.35-1,5.61,5.61,0,0,1,2.07-.34,7.73,7.73,0,0,1,1.64.16,10.68,10.68,0,0,1,1.47.41,14.23,14.23,0,0,1,1.42.59l-1,2.79a6,6,0,0,0-1.61-1,4.18,4.18,0,0,0-1.48-.36.74.74,0,0,0-.5.12.38.38,0,0,0-.13.27.47.47,0,0,0,.24.43,2.72,2.72,0,0,0,.76.31c.34.1.79.25,1.35.46a9.67,9.67,0,0,1,1.3.59,2.81,2.81,0,0,1,1,.88,2.58,2.58,0,0,1,.38,1.47,3,3,0,0,1-1,2.49,4.58,4.58,0,0,1-2.85.77,11.2,11.2,0,0,1-2.06-.18,10.1,10.1,0,0,1-1.85-.52A16.11,16.11,0,0,1,48,224.7l1.32-2.88A11.56,11.56,0,0,0,51.08,222.86Z"/><path class="cls-5" d="M63.84,230.28h-4l2.16-5L57.54,216H62l3.15,7.88H62.89L66,216h4.1Z"/><path class="cls-5" d="M74.65,221.89a1.8,1.8,0,0,0,.79.65,2.52,2.52,0,0,0,1.06.22,3.5,3.5,0,0,0,.91-.12,3.32,3.32,0,0,0,.88-.4,2.63,2.63,0,0,0,.73-.72v3.7a5.65,5.65,0,0,1-1.14.46,6.53,6.53,0,0,1-1.8.19,7.24,7.24,0,0,1-3.06-.61,4.84,4.84,0,0,1-2.11-1.74,5.1,5.1,0,0,1,0-5.39A5,5,0,0,1,73,216.4a7.24,7.24,0,0,1,3.06-.61,6.53,6.53,0,0,1,1.8.19,9.85,9.85,0,0,1,1.14.42v3.72a2.36,2.36,0,0,0-.78-.73,3.54,3.54,0,0,0-1.74-.49,2.28,2.28,0,0,0-1.06.26,2.31,2.31,0,0,0-.79.69,1.76,1.76,0,0,0-.29,1A1.86,1.86,0,0,0,74.65,221.89Z"/><path class="cls-5" d="M88.83,219.77a3.25,3.25,0,0,1-.45-.75,2.15,2.15,0,0,1,.23-2.05,3,3,0,0,1,1.16-1,3.85,3.85,0,0,1,1.84-.4,3.43,3.43,0,0,1,1.71.38,2.76,2.76,0,0,1,1.05.94,2.19,2.19,0,0,1,.34,1.15,2.33,2.33,0,0,1-.16.94,2.07,2.07,0,0,1-.5.69,6,6,0,0,1-.82.63c-.33.21-.7.47-1.13.77a3.58,3.58,0,0,1-.77.41l-.76.31a2,2,0,0,0-.57.36.79.79,0,0,0-.23.59.83.83,0,0,0,.48.76,1.43,1.43,0,0,0,.67.13,2.93,2.93,0,0,0,1.11-.22,4.6,4.6,0,0,0,1.08-.63,5.71,5.71,0,0,0,1-.93,8.22,8.22,0,0,0,.83-1.17l1.75,1.41a8.91,8.91,0,0,1-1,1.3,8.67,8.67,0,0,1-1.39,1.22,7.19,7.19,0,0,1-1.74.91,5.91,5.91,0,0,1-2,.35,4.63,4.63,0,0,1-1.83-.34,3,3,0,0,1-1.27-1,2.56,2.56,0,0,1-.47-1.54,2.42,2.42,0,0,1,.29-1.2A2.77,2.77,0,0,1,88,221a5.36,5.36,0,0,1,1-.56c.35-.15.69-.27,1-.38s.58-.19.79-.28a4.09,4.09,0,0,0,1.17-.7,1.05,1.05,0,0,0,.38-.7.57.57,0,0,0-.09-.29,1,1,0,0,0-.26-.27.71.71,0,0,0-.39-.11.7.7,0,0,0-.6.24.79.79,0,0,0-.19.45,1.24,1.24,0,0,0,.36.79l1,1.11,5.18,5.39H94.27l-4.78-5.09C89.24,220.29,89,220,88.83,219.77Z"/><path class="cls-5" d="M110,211v14.7h-4.62V211Zm-3.64,5h11.76v4.1H106.31Zm13.51-5v14.7H115.2V211Z"/><path class="cls-5" d="M124.72,225.26a4.64,4.64,0,0,1-2.08-1.73,4.9,4.9,0,0,1-.72-2.7,5.11,5.11,0,0,1,.69-2.72,4.48,4.48,0,0,1,2-1.72,8.66,8.66,0,0,1,6.23,0,4,4,0,0,1,1.89,1.64,5.08,5.08,0,0,1,.64,2.65v.54a2.56,2.56,0,0,1,0,.49h-9.18v-2h5.38l-.8,1a2.52,2.52,0,0,0,.21-.4.83.83,0,0,0,.08-.35,2,2,0,0,0-.16-.86,1.26,1.26,0,0,0-1.2-.74,1.37,1.37,0,0,0-1.45,1.08,5.16,5.16,0,0,0-.17,1.44,3.33,3.33,0,0,0,.18,1.25,1.66,1.66,0,0,0,.59.79,1.64,1.64,0,0,0,1,.27,2.89,2.89,0,0,0,1.26-.24,1.67,1.67,0,0,0,.76-.7l3.74.58a5.28,5.28,0,0,1-2.15,2.32,6.81,6.81,0,0,1-3.4.77A7.77,7.77,0,0,1,124.72,225.26Z"/><path class="cls-5" d="M138.75,223.07a.85.85,0,0,0,.35.27,1.29,1.29,0,0,0,.48.1,1.7,1.7,0,0,0,.76-.18,1.45,1.45,0,0,0,.61-.57,1.93,1.93,0,0,0,.24-1l.34,1.26a2.69,2.69,0,0,1-.46,1.59,2.92,2.92,0,0,1-1.26,1,4.36,4.36,0,0,1-1.81.35,4.49,4.49,0,0,1-1.74-.33,3,3,0,0,1-1.28-1,2.84,2.84,0,0,1-.49-1.67,2.66,2.66,0,0,1,1-2.18,4.44,4.44,0,0,1,2.83-.78,8.72,8.72,0,0,1,1.46.12,7.2,7.2,0,0,1,1.26.35,2.34,2.34,0,0,1,.87.56v1.65a2.71,2.71,0,0,0-1-.5,4,4,0,0,0-1.23-.19,1.89,1.89,0,0,0-.64.09.59.59,0,0,0-.34.24.71.71,0,0,0-.11.41A.73.73,0,0,0,138.75,223.07Zm-3.5-6.31a20.43,20.43,0,0,1,2.28-.74,10.54,10.54,0,0,1,2.66-.33,7.67,7.67,0,0,1,2.47.37,4.1,4.1,0,0,1,1.77,1.11,2.56,2.56,0,0,1,.65,1.77v6.72h-3.89V220a1.35,1.35,0,0,0-.08-.5,1.13,1.13,0,0,0-.27-.41,1.38,1.38,0,0,0-.51-.28,2.75,2.75,0,0,0-.75-.09,6.08,6.08,0,0,0-1.24.13,10.5,10.5,0,0,0-1.16.32,6.14,6.14,0,0,0-.69.28Z"/><path class="cls-5" d="M151.27,209.28v16.38h-4.09V209.28Z"/><path class="cls-5" d="M159.88,216v3.26h-7.45V216Zm-1.78-3.36v13h-3.89v-13Z"/><path class="cls-5" d="M165.13,225.66H161V209.28h4.09Zm2-6.9a.84.84,0,0,0-.82-.36,1.27,1.27,0,0,0-.63.14,1,1,0,0,0-.42.45,1.82,1.82,0,0,0-.15.79h-.54a6.44,6.44,0,0,1,.33-2.11,3.16,3.16,0,0,1,1.12-1.53,3.35,3.35,0,0,1,2.07-.58,4,4,0,0,1,2,.42,2.24,2.24,0,0,1,1,1.22,5.83,5.83,0,0,1,.28,2v6.51h-4.09v-5.88A2.38,2.38,0,0,0,167.15,218.76Z"/><path class="cls-5" d="M185,220.21a3.24,3.24,0,0,0,1.36,1.15,4.64,4.64,0,0,0,1.88.37,5.39,5.39,0,0,0,1.81-.27,5.54,5.54,0,0,0,1.33-.68,9.1,9.1,0,0,0,1-.85v4.74a9.11,9.11,0,0,1-1.88,1,7,7,0,0,1-2.63.41,10.69,10.69,0,0,1-3.49-.54,7.66,7.66,0,0,1-2.69-1.58A7.14,7.14,0,0,1,180,221.5a8.65,8.65,0,0,1,0-6.38,7.24,7.24,0,0,1,1.72-2.46,7.64,7.64,0,0,1,2.69-1.57,10.43,10.43,0,0,1,3.49-.55,7.2,7.2,0,0,1,2.63.4,8.69,8.69,0,0,1,1.88,1v4.74a10.35,10.35,0,0,0-1-.86,5.2,5.2,0,0,0-1.33-.68,5.67,5.67,0,0,0-1.81-.26,4.48,4.48,0,0,0-1.88.38,3.15,3.15,0,0,0-1.36,1.14,3.73,3.73,0,0,0,0,3.8Z"/><path class="cls-5" d="M197.13,225.26a4.58,4.58,0,0,1-2.08-1.73,4.82,4.82,0,0,1-.73-2.7,5,5,0,0,1,.7-2.72,4.43,4.43,0,0,1,2-1.72,7.5,7.5,0,0,1,3.15-.6,7.6,7.6,0,0,1,3.08.56,4,4,0,0,1,1.89,1.64,5.17,5.17,0,0,1,.64,2.65v.54a3.74,3.74,0,0,1,0,.49h-9.18v-2h5.38l-.8,1a2.52,2.52,0,0,0,.21-.4,1,1,0,0,0,.08-.35,2,2,0,0,0-.17-.86,1.27,1.27,0,0,0-.47-.55,1.29,1.29,0,0,0-.72-.19,1.57,1.57,0,0,0-.93.26,1.52,1.52,0,0,0-.52.82,4.81,4.81,0,0,0-.17,1.44,3,3,0,0,0,.18,1.25,1.66,1.66,0,0,0,.59.79,1.59,1.59,0,0,0,.95.27,3,3,0,0,0,1.26-.24,1.67,1.67,0,0,0,.76-.7l3.73.58a5.17,5.17,0,0,1-2.15,2.32,6.75,6.75,0,0,1-3.39.77A7.77,7.77,0,0,1,197.13,225.26Z"/><path class="cls-5" d="M213.64,218.76c-.12-.24-.4-.36-.82-.36a1.27,1.27,0,0,0-.63.14,1,1,0,0,0-.42.45,2,2,0,0,0-.14.79v5.88h-4.1V216h4.1v1.41a3.12,3.12,0,0,1,1.12-1.19,3.46,3.46,0,0,1,1.86-.45,3.41,3.41,0,0,1,2.75.94,4,4,0,0,1,.78,2.65v6.3h-4.31v-5.88A2.24,2.24,0,0,0,213.64,218.76Z"/><path class="cls-5" d="M226.75,216v3.26h-7.46V216ZM225,212.64v13h-3.88v-13Z"/><path class="cls-5" d="M230.28,225.26a4.61,4.61,0,0,1-2.07-1.73,4.82,4.82,0,0,1-.73-2.7,5.11,5.11,0,0,1,.69-2.72,4.5,4.5,0,0,1,2-1.72,7.5,7.5,0,0,1,3.15-.6,7.6,7.6,0,0,1,3.08.56,4,4,0,0,1,1.89,1.64,5.17,5.17,0,0,1,.64,2.65v.54a2.54,2.54,0,0,1-.05.49h-9.17v-2h5.37l-.8,1a1.53,1.53,0,0,0,.21-.4.86.86,0,0,0,.09-.35,2,2,0,0,0-.17-.86,1.27,1.27,0,0,0-.47-.55,1.32,1.32,0,0,0-.73-.19,1.56,1.56,0,0,0-.92.26,1.59,1.59,0,0,0-.53.82,5.2,5.2,0,0,0-.16,1.44,3,3,0,0,0,.18,1.25,1.52,1.52,0,0,0,1.54,1.06,3,3,0,0,0,1.26-.24,1.67,1.67,0,0,0,.76-.7l3.73.58a5.22,5.22,0,0,1-2.15,2.32,6.8,6.8,0,0,1-3.39.77A7.86,7.86,0,0,1,230.28,225.26Z"/><path class="cls-5" d="M244.68,225.66h-4V216h4Zm2.23-5.92a1.47,1.47,0,0,0-.72-.17,1.38,1.38,0,0,0-.71.21,1.54,1.54,0,0,0-.58.65,2.52,2.52,0,0,0-.22,1.14l-.76-1.79a4.24,4.24,0,0,1,.49-2.06,3.83,3.83,0,0,1,1.27-1.43,2.89,2.89,0,0,1,1.67-.54,2.21,2.21,0,0,1,1,.26,1.66,1.66,0,0,1,.68.62l-1.66,3.53A1.62,1.62,0,0,0,246.91,219.74Z"/><text class="cls-6" transform="translate(57.54 113.69)">國北<tspan x="0" y="84.29">心健</tspan></text><path class="cls-5" d="M117.63,232.34v22L104,243.83v9.51h-6.3V231.29l13.65,10.56v-9.51Z"/><path class="cls-5" d="M119.73,232.34h18.6v5.85h-6v15.15h-6.6V238.19h-6Z"/><path class="cls-5" d="M146.88,232.34v13.5a3.17,3.17,0,0,0,.65,2.06,2.9,2.9,0,0,0,4,0,3.12,3.12,0,0,0,.65-2.06v-13.5h6.6v14.1a9,9,0,0,1-.73,3.8,6.48,6.48,0,0,1-2,2.49,8.62,8.62,0,0,1-2.95,1.38,14.66,14.66,0,0,1-7.05,0,8.67,8.67,0,0,1-3-1.38,6.57,6.57,0,0,1-2-2.49,8.82,8.82,0,0,1-.73-3.8v-14.1Z"/><path class="cls-5" d="M169.11,232.34v21h-6.3v-21Zm-1.74,0H178v5.25H167.37Zm0,7.65h10v5.1h-10Zm0,8.1H178v5.25H167.37Z"/><path class="cls-5" d="M63.33,116.66V42.51h72.36v74.15Zm58.16-15.22-2.55,4.93H106l-1.53-11.65-1.1,1.36H92.58l2.21-2.63H80.42V69.3H99.64V87.83l3.57-4.16-2.47-17.78H79.14V58.16H99.81l-.77-6h11.82l.85,6h1.79l-.68-5.11h5.44l.51,5.11h1.36v7.73h-7.48l.76,5.87,1.87-2.12h6.21V50.76H77.78v58h43.71Zm-41.75,5V98.89l21.6-1.36v7.57Zm11.9-29.34H88.41v8.59h3.23Zm29.85-2.3-6.72,8,2,16.07h4.68Z"/><path class="cls-5" d="M166,116.83V105.35l-18.88,8.17v-9.1L166,95.66V70.4H146.83V61.81H166V42.08h15.64v74.75Zm54.34,0h-33V42.08H203V61.81h2.72l2.9-13.35h14.62L218.86,70.4H203v37.93h20.41Z"/><path class="cls-5" d="M76.51,191.6H61l6-39.54h15.3ZM122.85,201H84.16V138.62H99.47v53.83h28.14Zm-18.28-52.3-7.48-22.36h16.58l6.89,22.36Zm17.18,40.74L113,152.06h16.67l8.75,37.33Z"/><path class="cls-5" d="M219.54,201H189l-7.23-5.62L178.55,201h-14l7-13.44-7.66-6V201h-14v-40.4h-3.66l7.15-34.18h14.79l-.68,3.49h18.2v9.26l-5.1,18.2h5V187.6l7.31,5.87h30.7ZM165.8,138.11l-4,19.47h2v21.77h7.83V165.41h-5.45v-7.06l6-20.24Zm43.54,46.6v6.72H195.82v-6.72h-8.59v-7.23h8.59V173.4h-7.57v-7.23h7.57V162h-6.64V155h6.64V150.7h-9.36v-7.49h9.36V139H189v-7.22h6.81v-5.36h13.52v5.36h10v11.39h2.89v7.49h-2.89V162h-10v4.17h10.29v7.23H209.34v4.08h13v7.23ZM212.4,139h-3.06v4.17h3.06Zm0,11.66h-3.06v4.16h3.06Z"/></g></svg>